<mxfile host="app.diagrams.net" agent="Mozilla/5.0 (Windows NT 10.0; Win64; x64) AppleWebKit/537.36 (KHTML, like Gecko) Chrome/131.0.0.0 Safari/537.36" version="24.8.6">
  <diagram name="Page-1" id="e56a1550-8fbb-45ad-956c-1786394a9013">
    <mxGraphModel dx="1318" dy="1401" grid="1" gridSize="10" guides="1" tooltips="1" connect="1" arrows="1" fold="1" page="1" pageScale="1" pageWidth="1100" pageHeight="850" background="none" math="0" shadow="0">
      <root>
        <mxCell id="0" />
        <mxCell id="1" parent="0" />
        <mxCell id="0wvfiA-yXDDdbIESt3Ay-1" value="Moderator" style="shape=umlActor;verticalLabelPosition=bottom;verticalAlign=top;html=1;" parent="1" vertex="1">
          <mxGeometry x="100" y="380" width="30" height="60" as="geometry" />
        </mxCell>
        <mxCell id="0wvfiA-yXDDdbIESt3Ay-2" value="Student" style="shape=umlActor;verticalLabelPosition=bottom;verticalAlign=top;html=1;" parent="1" vertex="1">
          <mxGeometry x="100" y="240" width="30" height="60" as="geometry" />
        </mxCell>
        <mxCell id="0wvfiA-yXDDdbIESt3Ay-3" value="Tutor" style="shape=umlActor;verticalLabelPosition=bottom;verticalAlign=top;html=1;" parent="1" vertex="1">
          <mxGeometry x="100" y="20" width="30" height="60" as="geometry" />
        </mxCell>
        <mxCell id="0wvfiA-yXDDdbIESt3Ay-5" value="Moderate class forum comments" style="ellipse;whiteSpace=wrap;html=1;" parent="1" vertex="1">
          <mxGeometry x="530" y="420" width="140" height="70" as="geometry" />
        </mxCell>
        <mxCell id="0wvfiA-yXDDdbIESt3Ay-8" value="Post on the class forum" style="ellipse;whiteSpace=wrap;html=1;" parent="1" vertex="1">
          <mxGeometry x="480" y="170" width="140" height="70" as="geometry" />
        </mxCell>
        <mxCell id="0wvfiA-yXDDdbIESt3Ay-9" value="Correct assignments" style="ellipse;whiteSpace=wrap;html=1;" parent="1" vertex="1">
          <mxGeometry x="150" y="110" width="140" height="70" as="geometry" />
        </mxCell>
        <mxCell id="0wvfiA-yXDDdbIESt3Ay-10" value="Post a new course" style="ellipse;whiteSpace=wrap;html=1;" parent="1" vertex="1">
          <mxGeometry x="450" y="30" width="140" height="70" as="geometry" />
        </mxCell>
        <mxCell id="0wvfiA-yXDDdbIESt3Ay-11" value="&amp;lt;&amp;lt;include&amp;gt;&amp;gt;" style="endArrow=open;endSize=12;dashed=1;html=1;rounded=0;exitX=1;exitY=0.5;exitDx=0;exitDy=0;entryX=0.5;entryY=0;entryDx=0;entryDy=0;" parent="1" source="0wvfiA-yXDDdbIESt3Ay-9" target="0wvfiA-yXDDdbIESt3Ay-7" edge="1">
          <mxGeometry width="160" relative="1" as="geometry">
            <mxPoint x="870" y="239.5" as="sourcePoint" />
            <mxPoint x="1030" y="239.5" as="targetPoint" />
          </mxGeometry>
        </mxCell>
        <mxCell id="0wvfiA-yXDDdbIESt3Ay-13" value="" style="endArrow=none;html=1;rounded=0;entryX=0;entryY=0.5;entryDx=0;entryDy=0;" parent="1" target="0wvfiA-yXDDdbIESt3Ay-10" edge="1">
          <mxGeometry width="50" height="50" relative="1" as="geometry">
            <mxPoint x="150" y="70" as="sourcePoint" />
            <mxPoint x="460" y="50" as="targetPoint" />
          </mxGeometry>
        </mxCell>
        <mxCell id="0wvfiA-yXDDdbIESt3Ay-14" value="" style="endArrow=none;html=1;rounded=0;entryX=0;entryY=0.5;entryDx=0;entryDy=0;" parent="1" target="0wvfiA-yXDDdbIESt3Ay-7" edge="1">
          <mxGeometry width="50" height="50" relative="1" as="geometry">
            <mxPoint x="140" y="260" as="sourcePoint" />
            <mxPoint x="330" y="280" as="targetPoint" />
          </mxGeometry>
        </mxCell>
        <mxCell id="0wvfiA-yXDDdbIESt3Ay-15" value="" style="endArrow=none;html=1;rounded=0;entryX=0.5;entryY=0;entryDx=0;entryDy=0;" parent="1" target="0wvfiA-yXDDdbIESt3Ay-9" edge="1">
          <mxGeometry width="50" height="50" relative="1" as="geometry">
            <mxPoint x="150" y="90" as="sourcePoint" />
            <mxPoint x="320" y="150" as="targetPoint" />
          </mxGeometry>
        </mxCell>
        <mxCell id="0wvfiA-yXDDdbIESt3Ay-16" value="" style="endArrow=none;html=1;rounded=0;entryX=0.336;entryY=0;entryDx=0;entryDy=0;entryPerimeter=0;" parent="1" target="0wvfiA-yXDDdbIESt3Ay-8" edge="1">
          <mxGeometry width="50" height="50" relative="1" as="geometry">
            <mxPoint x="150" y="80" as="sourcePoint" />
            <mxPoint x="600" y="180" as="targetPoint" />
          </mxGeometry>
        </mxCell>
        <mxCell id="0wvfiA-yXDDdbIESt3Ay-17" value="" style="endArrow=none;html=1;rounded=0;entryX=0;entryY=0.5;entryDx=0;entryDy=0;" parent="1" target="kFRQIO3DiFlbbQC23N1V-8" edge="1">
          <mxGeometry width="50" height="50" relative="1" as="geometry">
            <mxPoint x="140" y="310" as="sourcePoint" />
            <mxPoint x="370" y="365" as="targetPoint" />
          </mxGeometry>
        </mxCell>
        <mxCell id="0wvfiA-yXDDdbIESt3Ay-18" value="" style="endArrow=none;html=1;rounded=0;entryX=0;entryY=0.5;entryDx=0;entryDy=0;" parent="1" target="0wvfiA-yXDDdbIESt3Ay-5" edge="1">
          <mxGeometry width="50" height="50" relative="1" as="geometry">
            <mxPoint x="150" y="440" as="sourcePoint" />
            <mxPoint x="570" y="430" as="targetPoint" />
          </mxGeometry>
        </mxCell>
        <mxCell id="0wvfiA-yXDDdbIESt3Ay-20" value="&amp;lt;&amp;lt;extend&amp;gt;&amp;gt;" style="endArrow=open;endSize=12;dashed=1;html=1;rounded=0;entryX=0.5;entryY=0;entryDx=0;entryDy=0;exitX=0.5;exitY=1;exitDx=0;exitDy=0;" parent="1" source="0wvfiA-yXDDdbIESt3Ay-8" target="0wvfiA-yXDDdbIESt3Ay-5" edge="1">
          <mxGeometry width="160" relative="1" as="geometry">
            <mxPoint x="770" y="360" as="sourcePoint" />
            <mxPoint x="680" y="410" as="targetPoint" />
          </mxGeometry>
        </mxCell>
        <mxCell id="0wvfiA-yXDDdbIESt3Ay-7" value="Submit assignments" style="ellipse;whiteSpace=wrap;html=1;" parent="1" vertex="1">
          <mxGeometry x="320" y="170" width="140" height="70" as="geometry" />
        </mxCell>
        <mxCell id="0wvfiA-yXDDdbIESt3Ay-22" value="&amp;lt;&amp;lt;include&amp;gt;&amp;gt;&lt;div&gt;{if cource updates requires&lt;/div&gt;&lt;div&gt;announcement on forum}&lt;/div&gt;" style="endArrow=open;endSize=12;dashed=1;html=1;rounded=0;exitX=0.5;exitY=1;exitDx=0;exitDy=0;entryX=0.5;entryY=0;entryDx=0;entryDy=0;" parent="1" source="0wvfiA-yXDDdbIESt3Ay-10" target="0wvfiA-yXDDdbIESt3Ay-8" edge="1">
          <mxGeometry x="-0.0474" y="9" width="160" relative="1" as="geometry">
            <mxPoint x="390" y="220" as="sourcePoint" />
            <mxPoint x="410" y="280" as="targetPoint" />
            <mxPoint y="1" as="offset" />
          </mxGeometry>
        </mxCell>
        <mxCell id="kFRQIO3DiFlbbQC23N1V-2" value="E-learning application" style="text;html=1;align=center;verticalAlign=middle;whiteSpace=wrap;rounded=0;" vertex="1" parent="1">
          <mxGeometry x="370" y="-150" width="160" height="30" as="geometry" />
        </mxCell>
        <mxCell id="kFRQIO3DiFlbbQC23N1V-3" value="Edit an existing course" style="ellipse;whiteSpace=wrap;html=1;" vertex="1" parent="1">
          <mxGeometry x="220" y="-70" width="140" height="70" as="geometry" />
        </mxCell>
        <mxCell id="kFRQIO3DiFlbbQC23N1V-5" value="" style="endArrow=none;html=1;rounded=0;entryX=0.5;entryY=1;entryDx=0;entryDy=0;" edge="1" parent="1" target="kFRQIO3DiFlbbQC23N1V-3">
          <mxGeometry width="50" height="50" relative="1" as="geometry">
            <mxPoint x="150" y="50" as="sourcePoint" />
            <mxPoint x="420" y="60" as="targetPoint" />
          </mxGeometry>
        </mxCell>
        <mxCell id="kFRQIO3DiFlbbQC23N1V-6" value="Delete an existing course" style="ellipse;whiteSpace=wrap;html=1;" vertex="1" parent="1">
          <mxGeometry x="400" y="-80" width="140" height="70" as="geometry" />
        </mxCell>
        <mxCell id="kFRQIO3DiFlbbQC23N1V-7" value="" style="endArrow=none;html=1;rounded=0;entryX=0.5;entryY=1;entryDx=0;entryDy=0;" edge="1" parent="1" target="kFRQIO3DiFlbbQC23N1V-6">
          <mxGeometry width="50" height="50" relative="1" as="geometry">
            <mxPoint x="150" y="60" as="sourcePoint" />
            <mxPoint x="220" as="targetPoint" />
          </mxGeometry>
        </mxCell>
        <mxCell id="kFRQIO3DiFlbbQC23N1V-8" value="Comment&amp;nbsp; on the class&lt;div&gt;&amp;nbsp;forum post&lt;/div&gt;" style="ellipse;whiteSpace=wrap;html=1;" vertex="1" parent="1">
          <mxGeometry x="360" y="280" width="140" height="70" as="geometry" />
        </mxCell>
        <mxCell id="kFRQIO3DiFlbbQC23N1V-9" value="&lt;span style=&quot;background-color: rgb(255, 255, 255);&quot;&gt;&amp;lt;&amp;lt;include&amp;gt;&amp;gt;&lt;/span&gt;" style="endArrow=open;startArrow=none;endFill=0;startFill=0;endSize=8;html=1;verticalAlign=bottom;dashed=1;labelBackgroundColor=none;rounded=0;exitX=0.5;exitY=1;exitDx=0;exitDy=0;entryX=1;entryY=0;entryDx=0;entryDy=0;" edge="1" parent="1" source="0wvfiA-yXDDdbIESt3Ay-8" target="kFRQIO3DiFlbbQC23N1V-8">
          <mxGeometry x="0.2269" y="6" width="160" relative="1" as="geometry">
            <mxPoint x="500" y="320" as="sourcePoint" />
            <mxPoint x="660" y="320" as="targetPoint" />
            <mxPoint as="offset" />
          </mxGeometry>
        </mxCell>
        <mxCell id="kFRQIO3DiFlbbQC23N1V-10" value="" style="endArrow=none;html=1;rounded=0;entryX=0;entryY=1;entryDx=0;entryDy=0;" edge="1" parent="1" target="0wvfiA-yXDDdbIESt3Ay-8">
          <mxGeometry width="50" height="50" relative="1" as="geometry">
            <mxPoint x="140" y="290" as="sourcePoint" />
            <mxPoint x="380" y="375" as="targetPoint" />
          </mxGeometry>
        </mxCell>
      </root>
    </mxGraphModel>
  </diagram>
</mxfile>
